<svg xmlns="http://www.w3.org/2000/svg" version="1.1" xmlns:xlink="http://www.w3.org/1999/xlink" xmlns:svgjs="http://svgjs.com/svgjs" width="1000" height="1000"><rect width="1000" height="1000" rx="500" ry="500" fill="#e81111"></rect><g transform="matrix(29.166666666666668,0,0,29.166666666666668,150,150)"><svg xmlns="http://www.w3.org/2000/svg" version="1.1" xmlns:xlink="http://www.w3.org/1999/xlink" xmlns:svgjs="http://svgjs.com/svgjs" width="24" height="24"><svg xmlns="http://www.w3.org/2000/svg" viewBox="0 0 24 24"><defs><style>.a{fill:none;stroke:#000;stroke-linecap:round;stroke-linejoin:round;}</style></defs><title>laptop-smiley-1</title><path class="a" d="M8.5,16.5c0,1.105,1.567,2,3.5,2s3.5-.895,3.5-2h5V5.167A1.667,1.667,0,0,0,18.833,3.5H5.167A1.667,1.667,0,0,0,3.5,5.167V16.5Z" id="id_101" style="stroke: rgb(255, 255, 255);"></path><path class="a" d="M15.5,16.5c0,1.105-1.567,2-3.5,2s-3.5-.895-3.5-2H.5a5.281,5.281,0,0,0,5.123,4H18.377a5.281,5.281,0,0,0,5.123-4Z" id="id_102" style="stroke: rgb(255, 255, 255);"></path><line class="a" x1="9.5" y1="7.5" x2="9.5" y2="9.5" id="id_103" style="stroke: rgb(255, 255, 255);"></line><line class="a" x1="14.5" y1="7.5" x2="14.5" y2="9.5" id="id_104" style="stroke: rgb(255, 255, 255);"></line><path class="a" d="M16,12a6.083,6.083,0,0,1-8,0" id="id_105" style="stroke: rgb(255, 255, 255);"></path></svg></svg></g></svg>