<svg id="Layer_2" data-name="Layer 2" xmlns="http://www.w3.org/2000/svg" width="48" height="48" viewBox="0 0 48 48">
  <g id="invisible_box" data-name="invisible box">
    <rect id="Rectangle_20" data-name="Rectangle 20" width="48" height="48" fill="none"/>
  </g>
  <g id="icons_Q2" data-name="icons Q2" transform="translate(3.953 3.953)">
    <g id="Group_6" data-name="Group 6">
      <path id="Path_13" data-name="Path 13" d="M43.083,4.6a1.885,1.885,0,0,0-2.777,0L29.791,15.11a15.078,15.078,0,0,0-5.158-1.19L31.18,7.373a1.885,1.885,0,0,0,0-2.777,1.885,1.885,0,0,0-2.778,0L24.335,8.662,20.268,4.6a1.885,1.885,0,0,0-2.777,0,1.885,1.885,0,0,0,0,2.777l4.067,4.067-3.67,3.67L7.373,4.6A1.885,1.885,0,0,0,4.6,4.6a1.885,1.885,0,0,0,0,2.777l9.721,9.721a15.871,15.871,0,1,0,19.046,0l9.721-9.721a1.885,1.885,0,0,0,0-2.777Zm-7.341,25.2a11.9,11.9,0,1,1-11.9-11.9A11.9,11.9,0,0,1,35.743,29.791Z" transform="translate(-3.985 -3.985)" fill="#7b3c8b"/>
      <path id="Path_14" data-name="Path 14" d="M29.011,27.869l-2.877-.4L24.845,24.6a.992.992,0,0,0-1.786,0l-1.29,2.877-2.877.4a1.091,1.091,0,0,0-.6,1.786l2.083,1.984-.5,3.075A1.091,1.091,0,0,0,21.373,35.8l2.579-1.885L26.531,35.8a1.091,1.091,0,0,0,1.488-1.091l-.5-3.075,2.083-1.984a1.091,1.091,0,0,0-.6-1.786Z" transform="translate(-4.097 -4.146)" fill="#7b3c8b"/>
    </g>
  </g>
</svg>
