<svg id="Layer_2" data-name="Layer 2" xmlns="http://www.w3.org/2000/svg" width="36" height="36" viewBox="0 0 36 36">
  <g id="invisible_box" data-name="invisible box">
    <rect id="Rectangle_24" data-name="Rectangle 24" width="36" height="36" fill="none"/>
  </g>
  <g id="icons_Q2" data-name="icons Q2" transform="translate(1.489 1.489)">
    <path id="Path_19" data-name="Path 19" d="M18.38,4.978a13.4,13.4,0,1,1-13.4,13.4,13.4,13.4,0,0,1,13.4-13.4M18.38,2a16.306,16.306,0,1,0,11.6,4.776A16.38,16.38,0,0,0,18.38,2Z" transform="translate(-2 -2)" fill="#ed2626"/>
    <path id="Path_20" data-name="Path 20" d="M16.914,28.007l-4.467-4.393A1.564,1.564,0,0,1,12.3,21.6a1.415,1.415,0,0,1,2.234-.149l3.425,3.425L27.338,15.5a1.489,1.489,0,0,1,2.085,2.085L19,28.007a1.415,1.415,0,0,1-2.085,0Z" transform="translate(-4.555 -5.372)" fill="#ed2626"/>
  </g>
</svg>
