<svg xmlns="http://www.w3.org/2000/svg" width="54" height="54" viewBox="0 0 54 54">
  <g id="Layer_2" data-name="Layer 2" transform="translate(0 0.384)">
    <g id="invisible_box" data-name="invisible box">
      <rect id="Rectangle_75" data-name="Rectangle 75" width="54" height="54" transform="translate(0 -0.384)" fill="none"/>
    </g>
    <g id="Layer_6" data-name="Layer 6" transform="translate(4.451 4.451)">
      <g id="Group_32" data-name="Group 32">
        <path id="Path_31" data-name="Path 31" d="M28.129,26.349l-3.8,3.8-3.574-3.574,3.8-3.8a2.234,2.234,0,0,0-3.128-3.128l-3.8,3.8-1.452-1.452a2.122,2.122,0,0,0-3.128,0L9.7,25.343a10.947,10.947,0,0,0-3.351,7.819,10.165,10.165,0,0,0,2.011,6.255L4.672,43.1a2.122,2.122,0,0,0,0,3.128,2.122,2.122,0,0,0,3.128,0l3.574-3.574A11.313,11.313,0,0,0,25.895,41.54l3.351-3.351a2.234,2.234,0,0,0,.67-1.564,1.9,1.9,0,0,0-.67-1.564l-1.787-1.787,3.8-3.8a2.234,2.234,0,0,0-3.128-3.128ZM22.767,38.412a6.814,6.814,0,0,1-9.494,0l-.447-.447a7.149,7.149,0,0,1-2.011-4.8,6.7,6.7,0,0,1,2.011-4.691l1.787-1.787,9.83,9.941Z" transform="translate(-3.985 -2.204)" fill="#8b1d1d"/>
        <path id="Path_32" data-name="Path 32" d="M46.068,4.672a2.122,2.122,0,0,0-3.128,0l-3.8,3.8A11.17,11.17,0,0,0,24.622,9.475l-3.351,3.351a2.234,2.234,0,0,0-.67,1.564,1.9,1.9,0,0,0,.67,1.564L34.339,29.022a2.122,2.122,0,0,0,3.128,0l3.351-3.239a11.058,11.058,0,0,0,3.239-7.931,11.617,11.617,0,0,0-1.787-6.143l3.8-3.909a2.122,2.122,0,0,0,0-3.128ZM37.69,22.544,35.9,24.331,25.962,14.39l1.787-1.675a6.59,6.59,0,0,1,9.494,0l.447.335a7.037,7.037,0,0,1,1.9,4.8,6.59,6.59,0,0,1-1.9,4.691Z" transform="translate(-2.041 -3.985)" fill="#8b1d1d"/>
      </g>
    </g>
  </g>
</svg>
