<svg xmlns="http://www.w3.org/2000/svg" width="23" height="24" viewBox="0 0 23 24"><g transform="translate(-0.5 0.462)"><rect width="23" height="24" transform="translate(0.5 -0.462)" fill="none"/><rect width="23" height="24" transform="translate(0.5 -0.462)" fill="none"/><g transform="translate(1.971 2.02)"><path d="M23.712,5.086V22.727a.148.148,0,0,1-.049.1.936.936,0,0,1-.887.887H17.6V16.124h2.415c.148,0,.148,0,.2-.148l.148-1.232c.049-.493.1-.986.2-1.478s0-.148-.1-.148H17.6V11.2c0-.148.049-.345.049-.493a.887.887,0,0,1,.788-.788l.641-.1h1.478c.1,0,.1,0,.1-.1V7.2c0-.049,0-.1-.1-.1H18.291a3.548,3.548,0,0,0-1.626.345A2.957,2.957,0,0,0,14.94,8.979a3.6,3.6,0,0,0-.394,1.774c-.049.739,0,1.528,0,2.316H12.032c-.1,0-.1.049-.1.1v2.809c0,.1,0,.1.1.1h2.513v7.589a.148.148,0,0,0-.049.1H4.936a.936.936,0,0,1-.887-.887c-.049,0-.049-.049-.049-.1V5.086c0-.049,0-.1.049-.1A.936.936,0,0,1,4.936,4.1H22.775a.936.936,0,0,1,.887.887Z" transform="translate(-4 -4.1)" fill="#ed2626"/></g></g></svg>