<svg xmlns="http://www.w3.org/2000/svg" width="65" height="65" viewBox="0 0 65 65">
  <path id="happy-clients" d="M34.5,2A32.5,32.5,0,1,1,2,34.5,32.5,32.5,0,0,1,34.5,2Zm0,4.874A27.626,27.626,0,1,0,62.124,34.5,27.626,27.626,0,0,0,34.5,6.873ZM23,43.543a14.63,14.63,0,0,0,22.984.014,2.437,2.437,0,1,1,3.825,3.021,19.5,19.5,0,0,1-30.638-.018A2.437,2.437,0,1,1,23,43.543Zm1.751-19.6A4.06,4.06,0,1,1,20.692,28,4.06,4.06,0,0,1,24.751,23.94Zm19.5,0A4.06,4.06,0,1,1,40.189,28,4.06,4.06,0,0,1,44.248,23.94Z" transform="translate(-1.998 -1.999)" fill="#438138"/>
</svg>
