<svg xmlns="http://www.w3.org/2000/svg" width="27.311" height="21.242" viewBox="0 0 27.311 21.242"><path d="M33.311,11.517a1.517,1.517,0,0,1-1.517,1.517H7.517A1.517,1.517,0,0,1,6,11.517H6A1.517,1.517,0,0,1,7.517,10H31.794A1.517,1.517,0,0,1,33.311,11.517Z" transform="translate(-6 -10)"/><path d="M33.311,23.517a1.517,1.517,0,0,1-1.517,1.517H7.517A1.517,1.517,0,0,1,6,23.517H6A1.517,1.517,0,0,1,7.517,22H31.794A1.517,1.517,0,0,1,33.311,23.517Z" transform="translate(-6 -12.896)"/><path d="M33.311,35.517a1.517,1.517,0,0,1-1.517,1.517H7.517A1.517,1.517,0,0,1,6,35.517H6A1.517,1.517,0,0,1,7.517,34H31.794A1.517,1.517,0,0,1,33.311,35.517Z" transform="translate(-6 -15.793)"/></svg>