<svg xmlns="http://www.w3.org/2000/svg" width="25" height="24" viewBox="0 0 25 24"><g transform="translate(0.481 -0.327)"><rect width="25" height="24" transform="translate(-0.481 0.327)" fill="none"/><rect width="25" height="24" transform="translate(-0.481 0.327)" fill="none"/><g transform="translate(2 2)"><path d="M14,5.8h4.051a5.4,5.4,0,0,1,1.85.35,3.351,3.351,0,0,1,1.9,1.9,5.4,5.4,0,0,1,.35,1.85c.05,1.05.05,1.4.05,4.051s0,3-.05,4.051a5.4,5.4,0,0,1-.35,1.85,3.351,3.351,0,0,1-1.9,1.9,5.4,5.4,0,0,1-1.85.35h-8.1a5.4,5.4,0,0,1-1.85-.35,3.351,3.351,0,0,1-1.9-1.9A5.4,5.4,0,0,1,5.85,18c-.05-1.05-.05-1.4-.05-4.051s0-3,.05-4.051a5.4,5.4,0,0,1,.35-1.85,3.351,3.351,0,0,1,1.9-1.9,5.4,5.4,0,0,1,1.85-.35H14M14,4H9.9a8.952,8.952,0,0,0-2.451.45A5,5,0,0,0,5.7,5.7a4.251,4.251,0,0,0-1.15,1.75A7.252,7.252,0,0,0,4.05,9.9C4,10.952,4,11.3,4,14s0,3.051.05,4.1a7.252,7.252,0,0,0,.5,2.451A4.251,4.251,0,0,0,5.7,22.3a4.251,4.251,0,0,0,1.75,1.15,7.252,7.252,0,0,0,2.451.5h8.2a7.252,7.252,0,0,0,2.451-.5A4.251,4.251,0,0,0,22.3,22.3a5,5,0,0,0,1.2-1.75,8.952,8.952,0,0,0,.45-2.451c.05-1.05.05-1.4.05-4.1s0-3.051-.05-4.1a8.952,8.952,0,0,0-.45-2.451A5,5,0,0,0,22.3,5.7a5,5,0,0,0-1.75-1.2A8.952,8.952,0,0,0,18.1,4.05H14" transform="translate(-4 -4)" fill="#ed2626"/><path d="M18.851,13.7A5.151,5.151,0,1,0,24,18.851,5.151,5.151,0,0,0,18.851,13.7m0,8.5A3.351,3.351,0,1,1,22.2,18.851,3.351,3.351,0,0,1,18.851,22.2" transform="translate(-8.849 -8.849)" fill="#ed2626"/><path d="M34.7,12.1a1.2,1.2,0,1,1-1.2-1.2,1.2,1.2,0,0,1,1.2,1.2" transform="translate(-18.147 -7.449)" fill="#ed2626"/></g></g></svg>