<svg id="Layer_2" data-name="Layer 2" xmlns="http://www.w3.org/2000/svg" width="58" height="58" viewBox="0 0 58 58">
  <g id="invisible_box" data-name="invisible box">
    <rect id="Rectangle_21" data-name="Rectangle 21" width="58" height="58" fill="none"/>
    <rect id="Rectangle_22" data-name="Rectangle 22" width="58" height="58" fill="none"/>
  </g>
  <g id="icons_Q2" data-name="icons Q2" transform="translate(9.665 2.38)">
    <path id="Path_15" data-name="Path 15" d="M21.558,25.733l-4.833-4.712a2.538,2.538,0,0,1-.242-3.263,2.3,2.3,0,0,1,3.625-.242l3.142,3.142,7.975-7.975a2.417,2.417,0,0,1,3.383,3.383l-9.667,9.667a2.3,2.3,0,0,1-3.383,0Z" transform="translate(-6.331 0.162)" fill="#364c89"/>
    <path id="Path_16" data-name="Path 16" d="M46.667,21.34A19.333,19.333,0,1,0,16.459,37.29V52.635a2.538,2.538,0,0,0,2.417,2.537A1.812,1.812,0,0,0,20.2,54.69l7.129-5.558,7.129,5.558a1.813,1.813,0,0,0,1.329.483,2.537,2.537,0,0,0,2.417-2.537V37.29a19.333,19.333,0,0,0,8.458-15.95Zm-33.833,0a14.5,14.5,0,1,1,14.5,14.5,14.5,14.5,0,0,1-14.5-14.5ZM33.375,47.681l-5.317-4.108a1.087,1.087,0,0,0-1.45,0l-5.317,4.108V39.706a20.421,20.421,0,0,0,6.042.967,20.421,20.421,0,0,0,6.042-.967Z" transform="translate(-7.998 -1.97)" fill="#364c89"/>
  </g>
</svg>
