<svg id="Layer_2" data-name="Layer 2" xmlns="http://www.w3.org/2000/svg" width="27" height="27" viewBox="0 0 27 27">
  <g id="invisible_box" data-name="invisible box">
    <rect id="Rectangle_73" data-name="Rectangle 73" width="27" height="27" fill="none"/>
  </g>
  <g id="icons_Q2" data-name="icons Q2" transform="translate(2.244 2.244)">
    <path id="Path_29" data-name="Path 29" d="M26.254,4A1.122,1.122,0,0,0,25.131,5.29a1.178,1.178,0,0,0,1.178.954h5.106L24.4,13.258a1.122,1.122,0,0,0-.112,1.571,1.01,1.01,0,0,0,.842.393,1.122,1.122,0,0,0,.786-.337l7.07-7.07v5.106a1.178,1.178,0,0,0,.954,1.178,1.122,1.122,0,0,0,1.291-1.122V5.122A1.122,1.122,0,0,0,34.109,4Z" transform="translate(-12.787 -4)"/>
    <path id="Path_30" data-name="Path 30" d="M25.153,18.588a1.178,1.178,0,0,0-.954,1.178V24.2H6.244V6.244h4.489a1.122,1.122,0,0,0,1.122-1.291A1.178,1.178,0,0,0,10.677,4H5.122A1.122,1.122,0,0,0,4,5.122v20.2a1.122,1.122,0,0,0,1.122,1.122h20.2a1.122,1.122,0,0,0,1.122-1.122V19.71a1.122,1.122,0,0,0-1.291-1.122Z" transform="translate(-4 -4)"/>
  </g>
</svg>
