<svg xmlns="http://www.w3.org/2000/svg" width="26" height="26" viewBox="0 0 26 26"><g transform="translate(-0.192 -0.115)"><rect width="26" height="26" transform="translate(0.192 0.115)" fill="none"/><rect width="26" height="26" transform="translate(0.192 0.115)" fill="none"/><g transform="translate(1.072 3.25)"><path d="M25.588,8.281a9.81,9.81,0,0,1-2.788.8A5.039,5.039,0,0,0,24.944,6.4a12.437,12.437,0,0,1-3.056,1.179,4.878,4.878,0,0,0-8.417,3.27,4.074,4.074,0,0,0,.161,1.126A13.831,13.831,0,0,1,3.662,6.941a4.557,4.557,0,0,0-.7,2.412,4.771,4.771,0,0,0,2.2,4.021,4.342,4.342,0,0,1-2.2-.59h0a4.771,4.771,0,0,0,3.86,4.771,4.61,4.61,0,0,1-1.287.214l-.911-.107A4.932,4.932,0,0,0,9.184,21.04a9.757,9.757,0,0,1-6,2.037H2a13.456,13.456,0,0,0,7.4,2.2A13.7,13.7,0,0,0,23.175,11.5v-.7a9.81,9.81,0,0,0,2.412-2.52Z" transform="translate(-2 -6.063)" fill="#ed2626"/></g></g></svg>