<svg xmlns="http://www.w3.org/2000/svg" width="59.852" height="59.852" viewBox="0 0 59.852 59.852">
  <g id="Layer_2" data-name="Layer 2" transform="translate(0 6.545) rotate(-7)">
    <g id="invisible_box" data-name="invisible box">
      <rect id="Rectangle_42" data-name="Rectangle 42" width="53.707" height="53.707" fill="none"/>
    </g>
    <g id="icons_Q2" data-name="icons Q2" transform="translate(4.494 4.476)">
      <path id="Path_21" data-name="Path 21" d="M48.263,20.629,32.423,4.676a2.135,2.135,0,0,0-3.146,0l-24.6,24.6A2.247,2.247,0,0,0,4,30.852v15.84a2.247,2.247,0,0,0,2.247,2.247h15.84a2.247,2.247,0,0,0,1.573-.674l24.6-24.491a2.134,2.134,0,0,0,0-3.146ZM21.188,44.445H8.494V31.751L22.537,17.82,35.119,30.515ZM38.377,27.369,25.682,14.674l5.168-5.28L43.545,22.2Z" transform="translate(-4 -3.985)" fill="#fff"/>
    </g>
  </g>
</svg>
