<svg id="Group_3" data-name="Group 3" xmlns="http://www.w3.org/2000/svg" width="19.25" height="19.25" viewBox="0 0 19.25 19.25">
  <path id="Path_6" data-name="Path 6" d="M24.7,17.518,17.481,13.1c-.263-.175-.481-.044-.481.263v8.925c0,.306.219.438.481.262L24.7,18.13a.35.35,0,0,0,0-.613Z" transform="translate(-10.438 -8.199)"/>
  <path id="Path_7" data-name="Path 7" d="M11.625,2a9.581,9.581,0,1,0,6.819,2.806A9.625,9.625,0,0,0,11.625,2Zm0,17.5A7.875,7.875,0,1,1,19.5,11.625,7.875,7.875,0,0,1,11.625,19.5Z" transform="translate(-2 -2)"/>
</svg>
